<?xml version="1.0"?>
<svg xmlns="http://www.w3.org/2000/svg" xmlns:xlink="http://www.w3.org/1999/xlink" version="1.1" id="Capa_1" x="0px" y="0px" viewBox="0 0 368 368" style="enable-background:new 0 0 368 368;" xml:space="preserve" width="512px" height="512px" class=""><g><g>
	<path d="M104,240.001c4.424,0,8-3.584,8-8v-80c0-13.232-10.768-24-24-24H56c-13.232,0-24,10.768-24,24v80   c0,4.416,3.576,8,8,8s8-3.584,8-8v-24h48v24C96,236.417,99.576,240.001,104,240.001z M48,192.001v-40c0-4.408,3.584-8,8-8h32   c4.416,0,8,3.592,8,8v40H48z" data-original="#007AFF" class="active-path" data-old_color="#007AFF" fill="#FFFFFF"/>
	<path d="M168,232.001v-24h24c22.056,0,40-17.944,40-40s-17.944-40-40-40h-32c-4.424,0-8,3.584-8,8v64v32   c0,4.416,3.576,8,8,8S168,236.417,168,232.001z M168,144.001h24c13.232,0,24,10.768,24,24s-10.768,24-24,24h-24V144.001z" data-original="#007AFF" class="active-path" data-old_color="#007AFF" fill="#FFFFFF"/>
	<path d="M264,224.001c-4.424,0-8,3.584-8,8s3.576,8,8,8h64c4.424,0,8-3.584,8-8s-3.576-8-8-8h-24v-80h24   c4.424,0,8-3.584,8-8s-3.576-8-8-8h-64c-4.424,0-8,3.584-8,8s3.576,8,8,8h24v80H264z" data-original="#007AFF" class="active-path" data-old_color="#007AFF" fill="#FFFFFF"/>
	<path d="M344,48.001H219.312l-29.656-29.656c-3.128-3.128-8.184-3.128-11.312,0l-29.656,29.656H24   c-13.232,0-24,10.768-24,24v24c0,4.416,3.576,8,8,8s8-3.584,8-8v-24c0-4.408,3.584-8,8-8h128c2.128,0,4.16-0.84,5.656-2.344   L184,35.313l26.344,26.344c1.496,1.504,3.528,2.344,5.656,2.344h128c4.416,0,8,3.592,8,8v24c0,4.416,3.576,8,8,8s8-3.584,8-8v-24   C368,58.769,357.232,48.001,344,48.001z" data-original="#007AFF" class="active-path" data-old_color="#007AFF" fill="#FFFFFF"/>
	<path d="M360,264.001c-4.424,0-8,3.584-8,8v24c0,4.408-3.584,8-8,8H216c-2.128,0-4.16,0.84-5.656,2.344   L184,332.689l-26.344-26.344c-1.496-1.504-3.528-2.344-5.656-2.344H24c-4.416,0-8-3.592-8-8v-24c0-4.416-3.576-8-8-8s-8,3.584-8,8   v24c0,13.232,10.768,24,24,24h124.688l29.656,29.656c1.56,1.56,3.608,2.344,5.656,2.344s4.096-0.784,5.656-2.344l29.656-29.656H344   c13.232,0,24-10.768,24-24v-24C368,267.585,364.424,264.001,360,264.001z" data-original="#007AFF" class="active-path" data-old_color="#007AFF" fill="#FFFFFF"/>
</g></g> </svg>
